<svg xmlns="http://www.w3.org/2000/svg" viewBox="0 0 1031 1059" xml:space="preserve"><path fill="#FA8521" d="M817 1060c-208.694 0-417.387 0-626.884-.156-12.291-2.53-23.845-4.626-35.247-7.357-10.101-2.42-20.323-4.797-29.978-8.525-17.061-6.587-32.844-15.595-47.839-26.292-22.726-16.212-40.518-36.634-55.127-60.108C13.03 943.269 6.186 928.009 1 912c0-243.027 0-486.054.36-729.64 2.062-4.633 3.95-8.644 5.355-12.817.435-1.294-.446-3.031-.686-4.881.339-1.104.64-1.893 1.302-2.711 4.421-4.336 7.18-9.223 7.253-15.608.181-.626.301-.979.773-1.37 2.699-3.323 5.187-6.52 7.36-9.917 3.428-5.36 6.124-11.271 10.066-16.2 7.1-8.88 14.25-17.9 22.56-25.584 10.48-9.69 21.581-18.948 33.465-26.804 10.415-6.884 22.303-11.531 33.472-17.298 1.147-.592 1.83-2.083 2.997-3.243.626-.188.985-.29 1.787-.264 6.332-1.58 12.228-3.264 18.09-5.06.397-.121.535-1.09.992-1.72.199-.055.593-.181 1.065-.1 6.379.078 12.5 1.192 17.511-3.363.423-.384 1.248-.369 1.898-.454 10.486-1.373 20.939-3.214 31.47-3.996 21.992-1.635 44.011-3.247 66.047-3.866 23.31-.655 46.653-.147 69.982-.147 76.818.003 153.643-.598 230.453.18 76.707.776 153.478-3.487 230.125 2.713 10.259.83 20.59.755 30.883 1.175 1.276.052 2.76.248 3.76.937 4.727 3.253 9.671 2.283 15.03 1.103 1.068.057 1.78.126 2.61.509 4.929 3.844 10.023 5.95 16.346 3.506.73.039 1.145.083 1.673.45 6.635 3.055 13.119 5.884 19.69 8.49 6.413 2.543 12.894 4.922 19.398 7.222 1.301.46 2.842.242 4.546.395.632.166.99.274 1.385.738.756 1.24 1.3 2.42 2.22 2.964 6.969 4.11 14.017 8.088 21.03 12.123 14.742 8.482 27.014 19.934 38.183 32.544 6.894 7.784 13.432 15.953 19.414 24.452 4.178 5.936 7.225 12.682 10.627 19.145 2.81 5.336 5.585 10.707 8.027 16.217 1.783 4.025 3.117 8.263 4.443 12.472 2.442 7.752 4.642 15.58 7.118 23.322 1.355 4.236 3.069 8.359 4.669 12.883.05 1.057.053 1.763-.198 2.793-.286 3.64-.655 6.995-.288 10.267 1.1 9.801 3.466 19.557 3.6 29.354.689 50.44.885 100.888 1.119 151.333.04 8.46-.882 16.923-.834 25.382.175 30.787.672 61.572.829 92.358.05 9.959-.873 19.922-.837 29.88.212 57.61.642 115.218.84 172.827.042 12.125-.772 24.25-.849 36.379-.157 24.99-.067 49.98-.13 74.97-.005 2.142-.366 4.286-.603 6.425-1.108 10.021-3.318 20.07-3.044 30.052.277 10.108-3.345 19.197-5.629 28.43-2.474 10.002-5.25 20.171-10.212 29.726-5.375 10.348-9.481 21.337-16.154 31.082-11.76 17.173-23.423 34.313-41.248 46.12-5.952 3.942-10.9 9.408-16.881 13.293-8.672 5.632-17.656 10.883-26.909 15.49-6.7 3.335-14.044 5.382-21.116 7.965-6.599 2.41-13.142 5.017-19.862 7.03-2.674.802-6.552-.87-8.494.522-4.861 3.483-10.138 3.326-15.525 3.951-8.806 1.021-17.553 2.556-26.324 3.874M306.89 646.345c-.989-.702-1.978-1.403-3.216-2.636-.504-.262-1.008-.524-1.718-1.443-.982-.844-1.83-2.01-2.967-2.482-10.198-4.243-20.454-8.347-30.678-12.525-8.204-3.352-16.736-6.11-24.478-10.317-7.134-3.877-6.49-11.616.397-15.89 1.759-1.092 3.225-2.653 5.57-4.019.742-.074 1.484-.147 2.8.361 4.47-.122 8.942-.244 14.114-.285.455-.097.91-.193 1.98-.161.417.035.833.07 1.424.768 9.131 5.36 18.746 9.046 29.568 7.859 1.524-.168 2.901-1.672 4.852-2.771.478-.549.957-1.098 2.18-1.753.911-1.439 1.822-2.877 3.013-4.858.092-.396.184-.792.99-1.367.61-.955 1.646-1.859 1.768-2.872 1.128-9.434-.151-18.393-10.676-23.334-10.118-4.75-20.34-8.544-31.824-8.79-13.772-.294-27.348-1.16-40.691 4.011-19.005 7.364-30.829 20.298-33.656 40.66-2.115 15.23 1.578 28.67 13.686 39.052 10.966 9.403 24.522 13.42 37.677 18.334 8.76 3.272 18.496 4.61 25.567 11.372 2.131 2.038 4.004 5.527 4.003 8.351 0 4.92-3.166 9.232-7.963 10.326-9.986 2.279-20.181 1.717-30.013-1.13-6.824-1.974-13.422-4.774-20.037-7.415-6.54-2.61-12.177 0-17.272 3.34-5.932 3.886-5.738 10.653-5.276 16.685.323 4.216 1.143 10.032 3.97 12.128 11.06 8.202 24.035 12.917 37.73 14.082 11.368.968 22.914.68 34.324-.008 6.178-.373 12.672-1.833 18.226-4.477 5.478-2.607 9.95-7.328 15.139-11.425.19-.198.384-.391 1.297-.679 1.13-.88 2.498-1.573 3.353-2.667 10.675-13.66 12.944-29.13 8.94-45.567-.95-3.903-3.929-7.312-6.245-11.054 0 0-.276.089-.543-.476-.223-.35-.447-.701-.5-1.688-.619-.446-1.237-.892-2.132-1.614 0 0-.343-.187-.557-.754-.662-.743-1.324-1.486-2.126-2.872m478.26 251.536c1.044.265 2.14.884 3.124.74 8.709-1.287 14.718-8.475 14.709-17.396-.007-7.089-.101-14.179.023-21.265.247-14.13.757-28.256.874-42.386.052-6.294-.739-12.59-.869-18.89-.167-8.086-.041-16.179-.08-24.268-.005-.982.045-2.14-.426-2.916-6.504-10.736-18.129-15.106-29.85-8.703-8.499 4.641-8.481 12.42-8.483 20.125-.004 13.13.555 26.26.833 39.391.03 1.407-.235 2.82-.363 4.23l-2 1.515c-.841-1.58-1.539-3.26-2.547-4.726-8.396-12.22-16.803-24.434-25.316-36.573-2.372-3.383-5.843-6.17-7.534-9.822-4.665-10.07-12.278-15.635-23.012-17.708-6.957-1.342-12.106 2.923-17.562 5.537-2.138 1.024-3.295 5.633-3.562 8.724-.736 8.513-.972 17.087-1.03 25.639-.135 19.497-.034 38.996-.054 58.495-.006 6.084.587 12.27-.306 18.228-1.201 8.013 2.59 13.95 6.452 20.047.554.874 1.83 1.7 2.847 1.801 5.108.51 10.283 1.354 15.356.987 7.87-.57 13.025-5.592 13.501-13.496.77-12.777.808-25.598 1.122-38.4.07-2.832-.241-5.697.108-8.485.156-1.25 1.51-2.349 2.053-3.132 2.363 3.335 4.03 5.846 5.856 8.233 3.807 4.973 7.82 9.792 11.53 14.835 8.248 11.213 16.165 22.676 24.607 33.739 4.683 6.138 9.473 7.406 15.638 5.1 1.38.044 2.761.088 4.361.8M281.904 448.7c8.353 22.924 24.796 38.183 46.38 48.308 18.659 8.752 38.462 11.982 59.035 11.942 84.828-.163 169.657-.142 254.486-.026 15.696.022 30.906-2.718 45.135-8.823 27.168-11.657 46.122-31.102 54.581-60.223 6.23-21.449 3.783-41.946-5.739-61.511-10.262-21.086-27.069-35.953-48.186-45.905-8.56-4.034-8.439-3.824-6.669-13.01 2.271-11.782 1.526-23.669-1.685-35.082-4.384-15.579-13.24-28.635-25.686-39.052-11.925-9.981-25.8-16.278-40.755-20.07-6.905-1.75-7.286-1.307-6.78-8.42 1.877-26.387-6.458-49.32-22.554-69.97-13.341-17.117-30.013-29.991-48.84-40.375-13.608-7.507-28.025-12.908-43.082-16.64-12.47-3.09-22.272 2.313-24.794 14.738-.841 4.145.718 9.205 2.392 13.357 5.876 14.57-1.153 27.788-11.223 35.192-8.829 6.49-18.184 12.268-26.976 18.804-20.18 15.004-36.332 32.461-34.803 60.145.07 1.28-1.089 3.197-2.23 3.857-2.414 1.396-5.184 2.183-7.826 3.172-18.932 7.081-34.624 18.615-45.942 35.34-12.05 17.808-15.22 37.681-10.596 58.606.908 4.11-.34 5.576-3.62 7.248-11.964 6.096-22.376 14.195-31.164 24.446-8.19 9.554-13.398 20.444-16.629 32.547-4.634 17.365-2.808 34.145 3.77 51.405m304.334 263.366c1.881 3.973 2.803 9.004 5.813 11.73 11.59 10.5 31.478 3.852 34.912-11.24.438-1.923.602-3.944.616-5.922.084-12.165.18-24.332.058-36.495-.033-3.359 1.09-5.058 4.49-5.017 8.477.104 16.962.495 25.426.225 4.868-.155 10.295-.22 14.43-2.348 8.95-4.608 9.412-13.143 7.974-22.131-1.09-6.82-6.895-12.42-13.73-12.446-10.998-.042-21.998-.128-32.995.01-3.987.05-5.806-1.25-5.603-5.485.255-5.32.306-10.68-.038-15.99-.297-4.581 1.242-6.14 5.92-6.05 12.994.246 26 .208 38.99-.13 2.934-.076 6.251-1.224 8.648-2.926 6.097-4.328 8.314-14.188 5.74-22.697-2.127-7.035-6.973-10.82-14.338-10.831-23.33-.034-46.662.08-69.992.016-5.935-.016-10.609 2.204-12.931 7.588-1.724 3.996-3.257 8.472-3.28 12.744-.236 42.16-.138 84.323-.11 127.395M135.505 813.273l-8.494.019c-8.15.018-8.185-.137-8.234-8.45-.059-9.975.23-20.003-.699-29.908-.8-8.525-7.958-13.434-17.487-13.533-8.182-.085-14.646 4.974-16.389 13.054a38.329 38.329 0 0 0-.873 7.894c-.082 24.149-.078 48.297-.088 72.446-.003 8.494-.212 16.997.118 25.478.26 6.689 2.83 12.743 9.465 15.2 6.43 2.382 13.382 3.113 19.564-1.123 4.786-3.28 6.332-8.395 6.383-13.954.095-10.324.124-20.65.057-30.975-.026-3.856 1.238-5.833 5.501-5.752 9.822.186 19.653.172 29.476-.01 4.164-.076 5.553 1.601 5.482 5.647-.166 9.323-.314 18.665.102 27.974.51 11.413 3.24 21.017 19.311 19.836 9.262-.68 15.195-5.922 15.213-15.36.064-34.974.037-69.948-.047-104.922a15.369 15.369 0 0 0-16.677-15.313c-11.336.888-18.046 4.527-17.948 15.513.092 10.325-.12 20.652.023 30.976.054 3.874-1.4 5.428-5.276 5.312-5.824-.174-11.657-.046-18.483-.049M787.447 647.5c-.148-12.82-.302-25.64-.438-38.46-.043-4.1 1.307-6.551 6.126-6.321 5.983.285 12.001.163 17.99-.108 14.675-.665 21.193-8.588 19.029-22.858-1.586-10.455-7.183-15.388-17.822-15.4a29933.17 29933.17 0 0 0-89.486.038c-12.405.022-16.632 3.316-19.883 15.174-2.743 10.008 2.797 20.203 12.908 21.92 7.475 1.27 15.222 1.07 22.854 1.247 7.389.172 7.402.017 7.413 7.466.047 32.662-.02 65.324.207 97.984.057 8.17 2.457 15 11.354 18.528 14.557 5.77 28.61-2.3 29.722-17.797.095-1.327.03-2.665.03-3.998-.001-18.805-.004-37.61-.004-57.415M223.529 843.952c-1.195 3.629-2.377 7.262-3.588 10.886-3.006 9.002-6.25 17.932-8.973 27.018-2.343 7.818 3.343 15.036 11.532 15.158 3.33.05 6.664-.087 9.997-.107 5.064-.03 8.491-2.966 10.855-6.9 1.862-3.097 3.416-6.62 4.07-10.148.922-4.969 3.873-6.036 8.159-6.01 9.5.058 19 .026 28.5-.003 10.318-.033 10.013.059 13.553 9.941 2.6 7.259 6.573 13.637 15.85 13.346 2.816-.089 5.643.055 8.45-.13 8.832-.585 14.145-7.83 11.363-16.274-5.092-15.459-10.589-30.786-16.013-46.135-6.472-18.315-13.062-36.589-19.57-54.892-3.17-8.915-7.933-16.281-18.149-17.92-14.716-2.362-25.634-.39-32.002 14.883-3.514 8.43-6.313 17.16-9.369 25.778-4.817 13.585-9.578 27.19-14.665 41.509M582.472 825.5c.004 18.663-.005 37.326.017 55.989.01 9.7 5.414 15.202 15.099 15.227 17.662.046 35.326.03 52.989-.03 10.359-.035 16.095-5.818 16.123-16.07.028-10.149-5.223-15.125-16.118-15.17-9.498-.04-18.997-.096-28.493.055-3.825.06-5.551-1.335-5.325-5.263a79.821 79.821 0 0 0-.028-9.493c-.273-4.414 1.78-5.87 5.992-5.768 7.827.19 15.662.113 23.493.037 8.983-.087 13.804-5.512 13.736-15.29-.07-10.182-4.853-15.393-14.147-15.384-7.998.008-15.997.012-23.995.08-2.826.023-5.04-.577-5.04-3.997-.002-4.332-.292-8.706.248-12.972.184-1.46 2.433-3.708 3.843-3.79 7.128-.412 14.297-.043 21.438-.316 5.252-.2 10.858.037 15.625-1.744 5.518-2.063 8.625-10.257 7.523-15.596-1.558-7.55-5.812-12.23-13.396-12.52-17.963-.688-35.956-1.067-53.928-.855-9.751.115-14.516 4.985-14.868 14.439-.589 15.798-.557 31.62-.788 48.431m-59.596-62.722c-11.645-.127-23.29-.34-34.935-.36-14.626-.025-20.421 5.526-20.783 20.03-.348 13.937-.613 27.88-.626 41.821-.012 12.973.377 25.945.552 38.919.097 7.293-.168 14.604.253 21.876.416 7.17 5.298 11.514 12.386 11.787 1.995.077 3.995.071 5.992.043 9.212-.128 14.812-5.548 15.082-14.852.174-5.988.034-11.985.028-17.979-.007-7.197-.004-7.408 7.13-7.21 10.962.302 21.794-1.095 31.76-5.29 28.23-11.881 32.313-44.174 20.594-66.253-7.643-14.4-20.545-21.144-37.433-22.532M514.1 655.5c.03 17.819.024 35.638.111 53.457.03 5.892 1.704 11.688 6.314 15.2 11.733 8.94 34.08 5.288 34.62-13.07.079-2.654.447-5.303.449-7.954.016-35.972.022-71.943-.056-107.915-.011-5.31-.331-10.63-.746-15.926-.73-9.298-5.207-14.552-14.331-15.486-8.947-.916-18.558-1.758-23.519 8.306-1.828 3.709-2.647 8.263-2.694 12.445-.258 23.312-.137 46.628-.148 70.943m-42.508 72.764c10.84-4.2 13.447-12.553 13.348-23.471-.372-40.652-.065-81.31-.19-121.964-.038-12.322-4.584-18.946-16.206-19.956-6.597-.573-13.766.058-19.991 2.17-5.745 1.949-7.206 8.267-7.233 14.25a6785.408 6785.408 0 0 0-.08 38.989c.003 2.81-.427 4.95-3.966 4.935-15.828-.064-31.657-.004-47.484-.206-1.05-.014-2.814-1.723-2.985-2.837-.602-3.925-.828-7.933-.88-11.913-.122-9.162.2-18.338-.16-27.488-.247-6.299-1.887-12.895-8.236-15.396-5.212-2.052-11.297-2.748-16.945-2.558-4.536.152-9.489 1.727-13.38 4.105-6.488 3.966-5.617 11.469-5.661 17.705-.28 39.288-.361 78.58.013 117.867.095 9.962 1.62 19.623 12.954 24.763 12.703 5.761 27.804-.418 30.852-13.925.577-2.56.506-5.294.517-7.949.05-11.957.078-23.915-.013-35.872-.031-4.03 1.121-6.024 5.732-5.945 14.616.25 29.244.303 43.856-.036 5.084-.118 6.09 1.769 5.994 6.351-.267 12.825-.158 25.658-.076 38.487.039 6.105.637 12.834 5.762 16.365 6.927 4.772 15.138 6.836 24.458 3.53m357.049 47.824c-6.936 7.526-8.043 17.007-8.157 26.491-.151 12.615 4.878 23.13 15.835 29.798 6.175 3.758 13.033 6.453 19.732 9.274 7.175 3.022 14.766 5.156 21.673 8.664 2.546 1.294 4.697 5.246 5.157 8.27.539 3.54-1.183 7.558-5.476 8.418-4.962.993-10.314 2.515-15.056 1.577-8.063-1.594-15.768-4.97-23.646-7.529-8.809-2.86-15.746.368-19.41 8.941-3.219 7.536.017 16.903 7.4 20.454 8.231 3.959 16.984 6.066 25.962 7.973 12.694 2.697 25.023 1.54 36.94-1.945 20.576-6.019 32.155-24.045 29.21-46.043-1.917-14.324-10.25-24.026-23.148-29.554-8.361-3.584-17.357-5.66-25.843-8.988-4.228-1.658-8.297-4.188-11.808-7.086-3.776-3.117-3.059-8.122.885-11.049 6.343-4.706 13.276-4.794 20.413-2.376 5.186 1.758 10.274 3.805 15.434 5.645 5.002 1.782 13.962-2.372 15.858-7.31 5.372-13.997-1.416-21.804-12.753-26.225-10.416-4.063-21.377-4.552-32.372-4.179-14.28.484-27.077 4.523-36.83 16.78M345.103 805.5c.326 21.106.835 42.211.871 63.318.012 6.818-1.828 13.289 2.245 20.088 3.498 5.839 5.992 9.038 12.877 9.06 3.33.011 6.66.022 9.99.009 7.253-.028 11.994-3.893 12.765-10.883.617-5.595.98-11.24 1.051-16.87.156-12.274.059-12.544 12.552-12.198 14.125.391 26.723-3.872 37.64-12.384 4.676-3.647 8.57-8.713 11.715-13.815 5.397-8.755 4.773-18.88 3.916-28.577-.52-5.888-1.985-12.147-4.773-17.294-7.588-14.011-20.085-22.81-35.597-24.648-15.426-1.827-31.191-1.29-46.789-.946-7.733.17-13.824 6.043-15.351 11.622-2.927 10.688-3.675 21.526-3.112 33.518z"/><path fill="#F8F3F0" d="M1 166V1.025h1031c0 71.665 0 143.356-.396 215.52-1.48-2.025-2.913-4.434-3.573-7.04-1.284-5.069-1.945-10.294-3.21-15.369-1.787-7.17-4.24-14.191-5.695-21.42-.668-3.316-1.718-5.57-4.88-7.136-.165-.724-.236-1.143-.054-1.773-1.055-4.702-1.947-9.373-3.784-13.636-1.907-4.424-4.671-8.489-7.166-12.647-3.516-5.859-6.892-11.82-10.762-17.44-4.373-6.349-8.857-12.7-14.003-18.41-3.292-3.652-5.293-9.41-11.659-9.46 0-.029-.059-.032-.015-.392-2.328-3.094-2.944-7.823-8.062-7.497-.03-.025-.088-.076-.012-.438-1.75-4.919-5.665-6.572-10.203-7.665-.187-.048-.538-.211-.56-.561a306.57 306.57 0 0 0-13.281-11.74c-2.853-2.379-5.577-5.169-8.857-6.727-8.467-4.024-17.196-7.5-25.849-11.129-4.903-2.056-9.814-4.118-14.83-5.864-1.16-.404-2.765.475-4.475.739-.714-.11-1.119-.195-1.647-.585-3.489-2.285-6.414-5.808-11.34-3.445-.726-.106-1.137-.188-1.686-.582-7.365-2.31-14.673-4.058-21.791-6.389-5.075-1.661-9.976-2.987-15.527-1.026-.744-.017-1.169-.046-1.729-.434-.68-.685-1.194-1.222-1.774-1.305-7.178-1.032-14.343-2.535-21.556-2.839-8.519-.359-17.081.333-25.99.596-1.099.004-1.831-.02-2.658-.376-3.926-.72-7.757-1.439-11.59-1.441-116.468-.068-232.938-.07-349.407-.071-58.151 0-116.303.004-174.454.11-1.864.003-3.726 1.134-5.982 1.77-1.443.02-2.493.01-3.85-.28-9.764-.159-19.15-1.674-28.677 1.083-6.693 1.937-14.107 1.223-21.068 2.444-5.13.9-10.049 3.01-15.374 4.634-.734.07-1.156.088-1.85-.154-5.098-.733-9.393.398-13.249 3.988-1.046.185-1.748.287-2.695.116-4.637-1.605-7.19 1.362-10.239 3.957-.71.155-1.119.224-1.787.02-2.032-.218-4.017-.661-5.542-.018-5.107 2.156-9.945 4.954-15.075 7.042-10.912 4.441-21.654 9.064-31.164 16.254-9.844 7.442-20.321 14.094-28.31 23.722-.763.92-1.086 2.207-1.74 3.527-.327.457-.576.653-1.235.775-1.03.723-1.697 1.46-2.37 2.242-.006.043-.026.129-.377.056-1.197.374-2.27.624-2.858 1.297-11.51 13.186-23.557 25.906-30.392 42.543-3.415 8.311-10.012 15.166-11.602 24.459-.216 1.262-2.02 2.253-3.089 3.37z"/><path fill="#F8F2EE" d="M1032 846v214c-62.354 0-124.708 0-187.312-.336 9.32-2.367 19.085-3.747 28.422-6.552 26.183-7.864 51.095-18.439 73.033-35.323 22.518-17.332 41.54-37.717 55.235-62.635 10.1-18.38 17.978-37.791 22.269-58.44 2.392-11.512 4.405-23.106 6.387-34.697.906-5.296 1.326-10.675 1.966-16.017z"/><path fill="#F8F3F0" d="M169 1060H1c0-44.02 0-88.042.373-132.515 1.48 1.417 2.696 3.232 3.653 5.176.56 1.138.498 2.587 1.075 3.711 3.618 7.051 7.365 14.036 11.01 21.073 2.007 3.873 3.37 8.208 5.962 11.62 4.548 5.99 9.842 11.411 14.78 17.109 3.792 4.375 7.125 9.237 11.363 13.117 6.37 5.83 13.21 11.18 20.116 16.382a386.741 386.741 0 0 0 21.694 15.235c10.48 6.823 21.514 12.597 33.495 16.452 6.17 1.986 12.111 4.743 18.352 6.423 7.729 2.08 15.664 3.386 23.498 5.082.915.199 1.755.748 2.629 1.135z"/><path fill="#F1A160" d="M1032 845.531c-.64 5.81-1.06 11.19-1.966 16.486-1.982 11.591-3.995 23.185-6.387 34.696-4.291 20.65-12.169 40.062-22.27 58.441-13.694 24.918-32.716 45.303-55.234 62.635-21.938 16.884-46.85 27.459-73.033 35.323-9.337 2.805-19.101 4.185-28.89 6.552-8.908.336-17.595.336-26.751.336 8.302-1.318 17.049-2.853 25.855-3.874 5.387-.625 10.664-.468 15.525-3.95 1.942-1.392 5.82.279 8.494-.522 6.72-2.014 13.263-4.62 19.862-7.03 7.072-2.584 14.416-4.631 21.116-7.967 9.253-4.606 18.237-9.857 26.909-15.49 5.981-3.884 10.93-9.35 16.88-13.292 17.826-11.807 29.49-28.947 41.249-46.12 6.673-9.745 10.78-20.734 16.154-31.082 4.963-9.555 7.738-19.724 10.212-29.727 2.284-9.232 5.906-18.32 5.629-28.429-.274-9.982 1.936-20.03 3.044-30.052.237-2.139.598-4.283.603-6.425.063-24.99-.027-49.98.13-74.97.077-12.128.89-24.254.85-36.38-.199-57.608-.629-115.217-.84-172.826-.037-9.958.886-19.921.836-29.88-.157-30.786-.654-61.571-.829-92.358-.048-8.459.873-16.923.834-25.382-.234-50.445-.43-100.893-1.119-151.333-.134-9.797-2.5-19.553-3.6-29.354-.367-3.272.002-6.626.597-10.024 2.066 11.11 3.57 22.301 5.063 33.954.351 4.811.714 9.162 1.077 13.513v584.531z"/><path fill="#FDD5B1" d="M169.469 1060c-1.343-.387-2.183-.936-3.098-1.135-7.834-1.696-15.77-3.002-23.498-5.082-6.24-1.68-12.183-4.437-18.352-6.423-11.98-3.855-23.015-9.629-33.495-16.452a386.741 386.741 0 0 1-21.694-15.235c-6.905-5.202-13.746-10.552-20.116-16.382-4.238-3.88-7.571-8.742-11.364-13.117-4.937-5.698-10.231-11.119-14.78-17.108-2.592-3.413-3.954-7.748-5.96-11.621-3.646-7.037-7.393-14.022-11.01-21.073-.578-1.124-.515-2.573-1.076-3.711-.957-1.944-2.173-3.76-3.653-5.645C1 922.311 1 917.622 1 912.466c5.186 15.543 12.03 30.803 20.925 45.096 14.61 23.474 32.401 43.896 55.127 60.108 14.995 10.697 30.778 19.705 47.84 26.292 9.654 3.728 19.876 6.105 29.977 8.525 11.402 2.731 22.956 4.828 34.787 7.357-6.344.156-13.031.156-20.187.156z"/><path fill="#FED9B8" d="M1 166.454c1.069-1.57 2.873-2.562 3.09-3.824 1.589-9.293 8.186-16.148 11.6-24.459 6.836-16.637 18.884-29.357 30.393-42.543.588-.673 1.66-.923 2.758-.988-4.758 6.501-10.296 12.268-14.655 18.818-6.813 10.24-12.828 21.009-19.181 31.553-.12.353-.24.706-.701 1.503-2.672 5.451-5.003 10.46-7.334 15.467-.301.788-.602 1.577-1.22 2.897C3.957 168.94 2.479 172.47 1 176v-9.546zM1030.935 247.026c-1.505-11.192-3.01-22.383-4.822-33.817-.311-.949-.313-1.655-.254-3.14-1.62-8.334-3.063-15.95-5.048-23.425-1.859-6.999-4.29-13.845-6.469-20.76 3.066 1.262 4.116 3.516 4.784 6.832 1.454 7.229 3.908 14.25 5.695 21.42 1.265 5.075 1.926 10.3 3.21 15.37.66 2.605 2.093 5.014 3.573 7.503.396 2.691.396 5.391.132 8.747-.088 1.853.088 3.048.264 4.244 0 5.355 0 10.71-.266 16.537-.444.477-.622.483-.8.489z"/><path fill="#F1A160" d="M1 176.428a146.057 146.057 0 0 1 4.713-11.235c.556 1.319 1.437 3.056 1.002 4.35-1.404 4.173-3.293 8.184-5.355 12.357C1 180.286 1 178.57 1 176.428z"/><path fill="#FDD0A5" d="M1030.923 247.487c.19-.467.367-.473.81-.483.267 4.353.267 8.71.267 13.531a649.909 649.909 0 0 1-1.077-13.048z"/><path fill="#F8F3F0" d="M1032 229.6a12.305 12.305 0 0 1-.264-3.394c.264.86.264 1.927.264 3.394z"/><path fill="#703B12" d="M281.75 448.343c-6.424-16.903-8.25-33.683-3.616-51.048 3.23-12.103 8.439-22.993 16.629-32.547 8.788-10.251 19.2-18.35 31.163-24.446 3.281-1.672 4.53-3.138 3.621-7.248-4.624-20.925-1.455-40.798 10.596-58.606 11.318-16.725 27.01-28.259 45.942-35.34 2.642-.989 5.412-1.776 7.825-3.172 1.142-.66 2.301-2.577 2.23-3.857-1.528-27.684 14.624-45.14 34.804-60.145 8.792-6.536 18.147-12.313 26.976-18.804 10.07-7.404 17.099-20.622 11.223-35.192-1.674-4.152-3.233-9.212-2.392-13.357 2.522-12.425 12.323-17.828 24.794-14.738 15.057 3.732 29.474 9.133 43.083 16.64 18.826 10.384 35.498 23.258 48.84 40.375 16.095 20.65 24.43 43.583 22.553 69.97-.506 7.113-.125 6.67 6.78 8.42 14.954 3.792 28.83 10.089 40.755 20.07 12.446 10.417 21.302 23.473 25.686 39.052 3.21 11.413 3.956 23.3 1.685 35.083-1.77 9.185-1.891 8.975 6.669 13.01 21.117 9.951 37.924 24.818 48.186 45.904 9.522 19.565 11.97 40.062 5.74 61.51-8.46 29.122-27.414 48.567-54.582 60.224-14.229 6.105-29.44 8.845-45.135 8.823-84.829-.116-169.658-.137-254.486.026-20.573.04-40.376-3.19-59.035-11.942-21.584-10.125-38.027-25.384-46.534-48.665m49.624 22.878c2.183 1.205 4.273 2.632 6.562 3.58 16.006 6.628 32.827 9.221 50.015 9.246 74.977.11 149.955.06 224.932.07 2.333 0 4.668.114 6.997.029 12.894-.47 25.874-.222 38.659-1.678 15.45-1.758 29.1-8.133 40.839-18.834 9.329-8.504 15.524-18.964 18.27-30.685 2.897-12.368 2.736-25.267-1.696-37.735-3.523-9.909-9.065-18.52-16.41-25.792-12.305-12.188-27.425-18.677-44.632-20.592-10.244-1.14-11.558-4.298-6.12-13.063 9.891-15.943 10.402-32.937 4.44-50.132-6.558-18.91-21.717-29.015-39.806-34.304-10.992-3.214-22.753-3.922-34.22-5.34-7.507-.93-8.592-3.378-5.326-10.092 3.07-6.314 6.219-13.126 6.911-19.964 2.408-23.787-6.914-43.74-22.486-61.122-12.27-13.695-27.585-23.268-43.831-31.4-5.971-2.988-12.39-5.083-18.487-7.54-.54.876-.854 1.153-.855 1.431-.002.811-.046 1.681.218 2.425 3.686 10.38.416 20.113-3.633 29.325-4.341 9.879-12.059 17.438-20.674 23.788-9.33 6.876-19.308 12.894-28.437 20.014-5.697 4.444-11.21 9.638-15.28 15.546-8.03 11.657-4.806 24.801 7.12 30.143 7.694 3.447 15.954 5.405 24.675 3.362 4.337-1.016 8.835-1.44 13.287-1.814 1.726-.145 3.526.586 5.293.919l.294 1.502c-1.937 1.394-3.69 3.497-5.844 4.057-9.11 2.37-18.246 5.246-27.546 6.156-18.412 1.802-36.452 4.491-53.549 12.017-21.035 9.26-35.54 23.762-37.793 47.618-.736 7.806.613 15.786 7.095 21.475 3.351 2.94 7.245 5.253 10.779 7.996 3.782 2.935 3.807 6.644.079 8.93-1.537.943-3.281 1.663-5.026 2.13-5.395 1.446-10.894 2.525-16.248 4.1-13.466 3.962-25.258 10.65-34.808 21.206-14.2 15.696-17.076 34.355-12.626 53.9 3.751 16.476 13.406 29.791 28.868 39.122z"/><path fill="#FBF1E2" d="M269.943 597.052c-.416-.034-.832-.07-1.6-.434-1.017-.437-1.683-.544-2.81-.674-4.811.275-9.16.571-13.508.868-.741.074-1.483.147-2.929.15-1.159-.06-1.613-.049-2.262-.224-.732.298-1.27.782-2.035 1.496-1.75 1.074-3.274 1.918-5.185 2.782-5.56 1.252-3.984 5.931-4.275 8.98-.463 4.853 3.246 8.881 7.655 10.014.004-.012-.017.006.055.345 4.707 2.127 9.34 3.915 14.26 5.732.669.04 1.051.05 1.576.365 2.134 1.054 4.125 1.802 6.406 2.588.68.06 1.068.083 1.567.362.796.392 1.482.528 2.466.682.698.017 1.097.014 1.623.336 3.066 3.596 6.718 4.895 11.416 4.35 1.446.462 2.54.846 3.686 1.539.692.651 1.331.993 2.34 1.415 1.12.144 1.872.208 2.693.604 2.023 1.314 3.978 2.296 6.262 3.37 1.368.537 2.407.98 3.528 1.769 1.098 1.069 2.115 1.79 3.336 2.65.458.347.673.592.898 1.228 1.407 1.05 2.766 1.745 4.124 2.44 0 0 .343.186.503.61.708.893 1.255 1.36 1.802 1.826.223.351.447.702.52 1.466.217 1.043.583 1.673.976 2.639.116.776.205 1.217.214 2.039 1.485 3.548 3.049 6.714 4.61 10.221.023 1.022.05 1.703-.18 2.705-.076 4.79.104 9.259.266 14.151-.327 2.796-.635 5.167-1.282 7.621-1.347 2.372-2.356 4.662-3.44 7.302-.458 1.433-.841 2.516-1.57 3.667-1.13 1.363-1.915 2.658-2.933 3.983-.234.03-.689.155-1.023.181-1.827 1.932-3.318 3.837-5.147 5.814-7.405 4.904-15.127 8.035-23.29 10.79-14.999 5.065-30.005 3.586-44.792 1.052-9.374-1.605-18.313-6.051-27.28-9.64-9.18-3.673-11.907-19.334-4.79-26.212 5.492-5.307 12.04-5.04 18.651-3.043 8.68 2.622 17.14 6.048 25.913 8.272 8.531 2.163 17.234.953 25.528-1.787 5.423-1.792 7.352-6.634 7.328-11.855-.025-5.714-1.9-10.996-7.74-13.362-13.556-5.492-27.276-10.582-40.8-16.146-5.833-2.399-11.834-4.89-16.904-8.53-10.022-7.19-16.911-16.467-15.535-29.878.338-3.3-.507-6.79.203-9.966 1.23-5.507 2.158-11.57 5.178-16.083 5.518-8.246 12.886-14.658 22.342-19.035 14.619-6.766 29.611-8.076 45.017-5.332 8.845 1.574 17.69 3.983 26.015 7.313 4.622 1.848 10.605 3.771 11.496 10.876.288 3.824.592 7.195.864 10.94-.002 1.124.027 1.873.056 2.621-.091.396-.183.792-.658 1.483-.706.363-1.027.442-1.689.585-3.793 1.81-7.257 3.538-10.671 5.36-.5.267-.763.98-1.536 1.476-2-.025-3.599-.04-5.343-.367-2.17-2.016-3.86-4.732-7.47-2.691-1.372-.35-2.42-.644-3.573-1.235-.763-.652-1.423-1.007-2.418-1.424-.786-.101-1.237-.14-1.724-.458-.662-.42-1.288-.562-2.298-.75-1.15-.01-1.916.03-2.683.068z"/><path fill="#FBEFDF" d="M784.93 897.213c-1.38-.044-2.76-.088-4.817-.332-7.213-.361-11.387-4.435-14.819-9.248-14.063-19.722-27.95-39.57-41.998-59.305-.928-1.303-2.652-2.04-4.006-3.04-.411 1.515-1.17 3.028-1.18 4.545-.107 15.988-.112 31.978-.11 47.966.002 14.312-5.838 19.71-20.014 18.434-7.168-.645-11.903-5.535-12.142-12.773-.149-4.492-.036-8.993-.034-13.49.018-30.811.012-61.624.081-92.436.013-5.648 1.604-10.389 7.582-12.727 11.015-4.31 20.72-1.727 27.55 8.01 13.82 19.705 27.46 39.536 41.274 59.246.954 1.361 2.724 2.151 4.114 3.206l1.309-.856c0-1.94-.002-3.878 0-5.818.022-16.988-.028-33.977.116-50.964.04-4.73.776-9.47 5.635-11.98 13.069-6.753 26.668-1.457 26.573 15.766-.179 32.476-.055 64.954-.085 97.43-.01 10.792-4.456 16.175-15.028 18.366z"/><path fill="#FBEEDD" d="M586.226 711.611c-.016-42.617-.114-84.78.122-126.94.023-4.272 1.556-8.748 3.28-12.744 2.322-5.384 6.996-7.604 12.93-7.588 23.331.064 46.662-.05 69.993-.016 7.365.01 12.21 3.796 14.338 10.83 2.574 8.51.357 18.37-5.74 22.698-2.397 1.702-5.714 2.85-8.647 2.926-12.99.338-25.997.376-38.99.13-4.68-.09-6.218 1.469-5.921 6.05.344 5.31.293 10.67.038 15.99-.203 4.235 1.616 5.534 5.603 5.485 10.997-.138 21.997-.052 32.996-.01 6.834.025 12.638 5.625 13.73 12.446 1.437 8.988.975 17.523-7.976 22.13-4.134 2.129-9.561 2.194-14.43 2.35-8.463.27-16.948-.122-25.424-.226-3.4-.041-4.524 1.658-4.49 5.017.12 12.163.025 24.33-.059 36.495-.014 1.978-.178 4-.616 5.923-3.434 15.091-23.322 21.739-34.912 11.24-3.01-2.727-3.932-7.758-5.825-12.186zM136.003 813.274c6.328.002 12.161-.126 17.985.048 3.876.116 5.33-1.438 5.276-5.312-.143-10.324.069-20.651-.023-30.976-.098-10.986 6.612-14.625 17.948-15.513a15.369 15.369 0 0 1 16.677 15.313c.084 34.974.11 69.948.047 104.922-.018 9.438-5.95 14.68-15.213 15.36-16.07 1.181-18.801-8.423-19.311-19.836-.416-9.309-.268-18.651-.102-27.974.071-4.046-1.318-5.723-5.482-5.647-9.823.182-19.654.196-29.476.01-4.263-.08-5.527 1.896-5.501 5.752.067 10.325.038 20.65-.057 30.975-.05 5.559-1.597 10.675-6.383 13.954-6.182 4.236-13.134 3.505-19.564 1.124-6.635-2.458-9.205-8.512-9.465-15.201-.33-8.481-.121-16.984-.118-25.478.01-24.149.006-48.297.088-72.446.01-2.635.317-5.317.873-7.894 1.743-8.08 8.207-13.14 16.39-13.054 9.528.1 16.686 5.008 17.486 13.533.93 9.905.64 19.933.699 29.909.05 8.312.084 8.467 8.234 8.449 2.831-.007 5.662-.013 8.992-.018zM787.446 648l.005 56.915c0 1.333.065 2.671-.03 3.998-1.113 15.496-15.165 23.567-29.722 17.797-8.897-3.527-11.297-10.358-11.354-18.528-.228-32.66-.16-65.322-.207-97.984-.01-7.449-.024-7.294-7.413-7.466-7.632-.177-15.379.024-22.854-1.246-10.111-1.718-15.65-11.913-12.908-21.921 3.25-11.858 7.478-15.152 19.883-15.174 29.829-.054 59.657-.074 89.486-.039 10.639.013 16.236 4.946 17.822 15.401 2.164 14.27-4.354 22.193-19.03 22.858-5.988.271-12.006.393-17.989.108-4.82-.23-6.169 2.221-6.126 6.321.136 12.82.29 25.64.437 38.96zM223.68 843.59c4.936-13.957 9.697-27.562 14.514-41.147 3.056-8.618 5.855-17.348 9.37-25.778 6.367-15.273 17.285-17.245 32.001-14.884 10.216 1.64 14.98 9.006 18.15 17.921 6.507 18.303 13.097 36.577 19.57 54.892 5.423 15.349 10.92 30.676 16.012 46.135 2.782 8.443-2.531 15.689-11.362 16.274-2.808.185-5.635.041-8.451.13-9.277.291-13.25-6.087-15.85-13.346-3.54-9.882-3.235-9.974-13.554-9.941-9.5.03-19 .061-28.5.003-4.285-.026-7.236 1.041-8.158 6.01-.654 3.527-2.208 7.05-4.07 10.149-2.364 3.933-5.791 6.869-10.855 6.9-3.333.02-6.666.156-9.997.106-8.189-.122-13.875-7.34-11.532-15.158 2.723-9.086 5.967-18.016 8.973-27.018 1.211-3.624 2.393-7.257 3.739-11.248m51.175-33.012-3.154-4.446c-.868 1.512-1.987 2.935-2.561 4.55a668.68 668.68 0 0 0-6.542 19.346c-1.5 4.664-2.79 9.395-4.432 14.977 7.815 0 15.09-.153 22.355.058 4.307.125 5.255-1.33 3.893-5.346-3.2-9.441-6.123-18.976-9.559-29.139z"/><path fill="#FBEDDC" d="M582.473 825c.23-16.312.198-32.133.787-47.931.352-9.454 5.117-14.324 14.868-14.439 17.972-.212 35.965.167 53.928.855 7.584.29 11.838 4.97 13.396 12.52 1.102 5.339-2.005 13.533-7.523 15.596-4.767 1.781-10.373 1.543-15.625 1.744-7.141.273-14.31-.096-21.438.317-1.41.081-3.659 2.328-3.843 3.789-.54 4.266-.25 8.64-.248 12.972 0 3.42 2.214 4.02 5.04 3.996 7.998-.067 15.997-.07 23.995-.079 9.294-.01 14.077 5.202 14.147 15.383.068 9.779-4.753 15.204-13.736 15.291-7.83.076-15.666.154-23.493-.037-4.212-.102-6.265 1.354-5.992 5.768.194 3.154.21 6.338.028 9.493-.226 3.928 1.5 5.324 5.325 5.263 9.496-.15 18.995-.095 28.493-.055 10.895.045 16.146 5.021 16.118 15.17-.028 10.252-5.764 16.035-16.123 16.07-17.663.06-35.327.076-52.99.03-9.684-.025-15.087-5.527-15.098-15.227-.022-18.663-.013-37.326-.016-56.489z"/><path fill="#FBEEDC" d="M523.317 762.872c16.447 1.294 29.349 8.038 36.992 22.438 11.72 22.08 7.637 54.372-20.593 66.254-9.967 4.194-20.8 5.591-31.761 5.288-7.134-.197-7.137.014-7.13 7.211.006 5.994.146 11.991-.028 17.98-.27 9.303-5.87 14.723-15.082 14.851-1.997.028-3.997.034-5.992-.043-7.088-.273-11.97-4.617-12.386-11.787-.42-7.272-.156-14.583-.253-21.876-.175-12.974-.564-25.946-.552-38.919.013-13.94.278-27.884.626-41.821.362-14.504 6.157-20.055 20.783-20.03 11.645.02 23.29.233 35.376.454m4.004 31.17c-7.453-4.263-15.6-3.681-23.703-3.375-2.638.1-3.71 1.404-3.674 4.139.135 9.975.133 19.952.088 29.928-.017 3.742 2.124 4.966 5.37 4.991 2.625.021 5.285.103 7.868-.27 3.23-.468 6.792-.673 9.52-2.214 11.206-6.33 13.54-22.414 4.531-33.198z"/><path fill="#FBEEDE" d="M514.1 655c.01-23.815-.11-47.131.147-70.443.047-4.182.866-8.736 2.694-12.445 4.961-10.064 14.572-9.222 23.519-8.306 9.124.934 13.602 6.188 14.33 15.486.416 5.296.736 10.616.747 15.926.078 35.972.072 71.943.056 107.915-.002 2.651-.37 5.3-.448 7.954-.541 18.358-22.888 22.01-34.62 13.07-4.611-3.512-6.286-9.308-6.315-15.2-.087-17.819-.08-35.638-.11-53.957z"/><path fill="#FCCA9E" d="M471.233 728.433c-8.962 3.138-17.173 1.074-24.1-3.698-5.125-3.53-5.723-10.26-5.762-16.365-.082-12.829-.19-25.662.076-38.487.096-4.582-.91-6.469-5.994-6.351-14.612.339-29.24.287-43.856.036-4.611-.079-5.763 1.915-5.732 5.945.09 11.957.062 23.915.013 35.872-.01 2.655.06 5.389-.517 7.949-3.048 13.507-18.149 19.686-30.852 13.925-11.333-5.14-12.86-14.8-12.954-24.763-.374-39.286-.293-78.58-.013-117.867.044-6.236-.827-13.74 5.661-17.705 3.891-2.378 8.844-3.953 13.38-4.105 5.648-.19 11.733.506 16.945 2.558 6.349 2.5 7.989 9.097 8.237 15.396.36 9.15.037 18.326.159 27.488.052 3.98.278 7.988.88 11.913.17 1.114 1.934 2.823 2.985 2.837 15.827.202 31.656.142 47.484.206 3.539.015 3.97-2.124 3.966-4.935-.017-12.996.022-25.993.08-38.989.027-5.983 1.488-12.301 7.233-14.25 6.225-2.112 13.394-2.743 19.99-2.17 11.623 1.01 16.17 7.634 16.207 19.956.125 40.655-.182 81.312.19 121.964.1 10.918-2.507 19.27-13.706 23.64M344.926 620.5c.001 25.995-.119 51.992.098 77.985.047 5.722 1.267 11.437 2.006 17.147.08.616.504 1.22.866 1.764 7.158 10.748 21.425 10.605 30.171 3.05 1.304-1.126 2.514-2.928 2.787-4.579.97-5.858 1.94-11.773 2.126-17.69.33-10.488.071-20.994.087-31.492.008-5.716.917-6.598 6.739-6.618 6.268-.021 12.536-.013 18.805-.011 10.092.001 20.186.113 30.276-.035 4.607-.068 6.235 2.003 6.056 6.396-.2 4.93-.247 9.884-.02 14.811.548 11.909 1.072 23.828 2.16 35.693.202 2.195 2.734 4.467 4.686 6.12 1.546 1.309 3.791 1.937 5.827 2.498 9.2 2.537 23.338-2.655 23.398-14.796.219-43.825.103-87.651-.015-131.476-.005-1.96-1.029-4.042-1.988-5.85-3.811-7.18-10.481-7.714-17.6-7.568-11.247.23-15.892 4.06-16.443 15.096-.624 12.486-.737 24.998-.974 37.501-.128 6.765-1.7 8.424-8.618 8.434-12.998.02-25.996.015-38.993.008-13.32-.007-12.99-.024-13.397-13.237-.407-13.194 2.428-26.664-2.736-39.496-.7-1.738-2.233-3.271-3.685-4.555-7.14-6.31-15.474-3.654-23.289-2.281-2.407.423-5.364 3.884-6.075 6.497-1.462 5.37-1.974 11.091-2.16 16.692-.32 9.654-.093 19.327-.095 29.992z"/><path fill="#F19D57" d="M785.04 897.547c10.463-2.525 14.909-7.908 14.919-18.7.03-32.476-.094-64.954.085-97.43.095-17.223-13.504-22.52-26.573-15.767-4.86 2.51-5.595 7.25-5.635 11.981-.144 16.987-.094 33.976-.116 50.964-.002 1.94 0 3.879 0 5.818l-1.31.856c-1.39-1.055-3.159-1.845-4.113-3.206-13.813-19.71-27.454-39.54-41.274-59.246-6.83-9.737-16.535-12.32-27.55-8.01-5.978 2.338-7.57 7.08-7.582 12.727-.069 30.812-.063 61.625-.08 92.437-.003 4.496-.116 8.997.033 13.49.239 7.237 4.974 12.127 12.142 12.772 14.176 1.276 20.016-4.122 20.014-18.433-.002-15.99.003-31.979.11-47.967.01-1.517.769-3.03 1.18-4.544 1.354 1 3.078 1.736 4.006 3.04 14.048 19.733 27.935 39.582 41.998 59.304 3.432 4.813 7.606 8.887 14.408 9.31-5.078 2.444-9.868 1.176-14.551-4.962-8.442-11.063-16.36-22.526-24.607-33.74-3.71-5.042-7.723-9.86-11.53-14.834-1.827-2.387-3.493-4.898-5.856-8.233-.544.783-1.897 1.883-2.053 3.132-.35 2.788-.038 5.653-.108 8.484-.314 12.803-.352 25.624-1.122 38.401-.476 7.904-5.63 12.926-13.501 13.496-5.073.367-10.248-.476-15.356-.987-1.017-.101-2.293-.927-2.847-1.801-3.862-6.097-7.653-12.034-6.452-20.047.893-5.958.3-12.144.306-18.228.02-19.499-.081-38.998.053-58.495.06-8.552.295-17.126 1.03-25.64.268-3.09 1.425-7.699 3.563-8.723 5.456-2.614 10.605-6.88 17.562-5.537 10.734 2.073 18.347 7.638 23.012 17.708 1.691 3.651 5.162 6.44 7.534 9.822 8.513 12.14 16.92 24.353 25.316 36.573 1.008 1.466 1.706 3.145 2.547 4.726l2-1.514c.128-1.41.393-2.824.363-4.23-.278-13.132-.837-26.262-.833-39.392.002-7.706-.016-15.484 8.482-20.125 11.722-6.403 23.347-2.033 29.851 8.703.47.776.421 1.934.426 2.916.039 8.09-.087 16.182.08 24.268.13 6.3.921 12.596.869 18.89-.117 14.13-.627 28.256-.874 42.386-.124 7.086-.03 14.176-.023 21.265.01 8.921-6 16.11-14.709 17.395-.983.145-2.08-.474-3.234-1.073z"/><path fill="#FDD0A5" d="M828.835 775.79c9.558-11.957 22.355-15.996 36.635-16.48 10.995-.372 21.956.116 32.372 4.179 11.337 4.421 18.125 12.228 12.753 26.224-1.896 4.939-10.856 9.093-15.858 7.31-5.16-1.839-10.248-3.886-15.434-5.644-7.137-2.418-14.07-2.33-20.413 2.376-3.944 2.927-4.66 7.932-.885 11.05 3.511 2.897 7.58 5.427 11.808 7.085 8.486 3.327 17.482 5.404 25.843 8.988 12.899 5.528 21.23 15.23 23.148 29.554 2.945 21.998-8.634 40.024-29.21 46.043-11.917 3.485-24.246 4.642-36.94 1.945-8.978-1.907-17.731-4.014-25.962-7.973-7.383-3.55-10.619-12.918-7.4-20.454 3.664-8.573 10.601-11.8 19.41-8.94 7.878 2.557 15.583 5.934 23.646 7.528 4.742.938 10.094-.584 15.056-1.577 4.293-.86 6.015-4.878 5.476-8.418-.46-3.024-2.611-6.976-5.157-8.27-6.907-3.508-14.498-5.642-21.673-8.664-6.699-2.821-13.557-5.516-19.732-9.274-10.957-6.669-15.986-17.183-15.835-29.798.114-9.484 1.221-18.965 8.352-26.79m86.256 69.791c-1.372-2.734-2.41-5.71-4.175-8.16-7.907-10.98-20.305-14.788-32.123-19.231-6.506-2.446-13.333-3.846-19.304-7.802-5.872-3.89-8.712-7.998-6.034-14.404 1.43-3.42 6.279-7.092 9.967-7.545 8.044-.988 16.373-1.488 24.287 2.56 3.767 1.928 8.688 3.264 12.693 2.576 3.707-.637 8.32-2.981 8.624-8.32.344-6.04.897-12.382-6.248-15.2-6.408-2.526-12.849-5.25-19.53-6.754-22.376-5.037-48.127 2.257-57.645 24.545-4.762 11.15-3.734 21.946 2.684 31.688 5.138 7.796 12.83 13.218 21.82 16.393 5.212 1.84 10.54 3.386 15.65 5.472 4.643 1.895 8.894 4.841 13.62 6.413 5.403 1.796 7.39 6.005 7.36 10.523-.063 9.85-4.835 12.535-15.278 13.58-11.593 1.16-22.175-2.419-32.568-7-4.473-1.972-12.008-.873-14.36 2.357-3.054 4.196-4.96 8.413-2.094 14.17 1.715 3.444 4.389 3.887 6.782 5.63 8.13 5.918 17.293 8.475 27.11 8.935 6.232.293 12.493.212 18.733.036 14.924-.418 27.123-6.204 35.454-18.915 1.548-2.36 1.694-5.652 3.28-7.972 5.06-7.4 3.62-15.102 1.295-23.575z"/><path fill="#FCC797" d="M310.364 594.916c-.387-.66-.416-1.408-.125-2.822.246-4.202 2.635-8.082-1.137-11.102-.907-6.653-6.89-8.576-11.512-10.424-8.326-3.33-17.17-5.739-26.015-7.313-15.406-2.744-30.398-1.434-45.017 5.332-9.456 4.377-16.824 10.789-22.342 19.035-3.02 4.513-3.947 10.576-5.178 16.083-.71 3.176.135 6.667-.203 9.966-1.376 13.411 5.513 22.688 15.535 29.878 5.07 3.64 11.071 6.131 16.903 8.53 13.525 5.564 27.245 10.654 40.8 16.146 5.841 2.366 7.716 7.648 7.741 13.362.024 5.22-1.905 10.063-7.328 11.855-8.294 2.74-16.997 3.95-25.528 1.787-8.772-2.224-17.232-5.65-25.913-8.272-6.61-1.997-13.159-2.264-18.651 3.043-7.117 6.878-4.39 22.539 4.79 26.212 8.967 3.589 17.906 8.035 27.28 9.64 14.787 2.534 29.793 4.013 44.792-1.051 8.163-2.756 15.885-5.887 23.664-10.77a33.121 33.121 0 0 1 2.206-.012c-4.913 3.794-9.384 8.515-14.862 11.122-5.554 2.644-12.048 4.104-18.226 4.477-11.41.688-22.956.976-34.323.008-13.696-1.165-26.67-5.88-37.732-14.082-2.826-2.096-3.646-7.912-3.97-12.128-.461-6.032-.655-12.799 5.277-16.686 5.095-3.339 10.731-5.949 17.272-3.339 6.615 2.64 13.213 5.44 20.037 7.416 9.832 2.846 20.027 3.408 30.013 1.13 4.797-1.095 7.962-5.407 7.963-10.327 0-2.824-1.872-6.313-4.003-8.35-7.07-6.763-16.808-8.101-25.567-11.373-13.155-4.915-26.711-8.93-37.677-18.334-12.108-10.382-15.801-23.823-13.686-39.051 2.827-20.363 14.65-33.297 33.656-40.66 13.343-5.171 26.919-4.306 40.69-4.012 11.484.246 21.707 4.04 31.825 8.79 10.525 4.94 11.804 13.9 10.676 23.334-.122 1.013-1.157 1.917-2.125 2.962z"/><path fill="#F1A160" d="M230 24.922c1.05.01 2.1.02 4.012.088 2.027.072 3.193.102 4.358.102 174.408-.015 348.817-.03 523.225-.056 4.491-.001 8.983-.11 13.475-.167.733.023 1.465.046 2.86.335 5.605.637 10.548 1.036 15.495 1.373 11.22.763 22.442 1.497 33.664 2.242.425.028.85.057 1.834.369 5.403 1.479 10.247 2.673 15.09 3.868-5.002 1.17-9.946 2.14-14.672-1.114-1.002-.689-2.485-.885-3.76-.937-10.295-.42-20.625-.345-30.884-1.175-76.647-6.2-153.418-1.937-230.125-2.714-76.81-.777-153.635-.176-230.453-.179-23.329 0-46.671-.508-69.982.147-22.036.62-44.055 2.231-66.047 3.866-10.531.782-20.984 2.623-31.47 3.996-.65.085-1.475.07-1.898.454-5.01 4.555-11.132 3.441-17.452 3.086-.357-.731-.301-1.106-.245-1.48a32.042 32.042 0 0 1 2.84-.299c4.867-1.269 9-2.543 13.132-3.817.421-.018.843-.036 2.004-.019 1.57.025 2.41.096 3.228-.01 15.237-1.983 30.47-3.998 45.707-5.98 5.35-.696 10.709-1.321 16.064-1.98z"/><path fill="#F2A260" d="M345.103 805c-.563-11.492.185-22.33 3.112-33.018 1.527-5.579 7.618-11.451 15.351-11.622 15.598-.344 31.363-.88 46.789.946 15.512 1.837 28.01 10.637 35.597 24.648 2.788 5.147 4.253 11.406 4.773 17.294.857 9.697 1.481 19.822-3.916 28.577-3.145 5.102-7.039 10.168-11.715 13.815-10.917 8.512-23.515 12.775-37.64 12.384-12.493-.346-12.396-.076-12.552 12.199a174.418 174.418 0 0 1-1.051 16.869c-.77 6.99-5.512 10.855-12.765 10.883-3.33.013-6.66.002-9.99-.009-6.885-.022-9.379-3.221-12.877-9.06-4.073-6.8-2.233-13.27-2.245-20.088-.036-21.107-.545-42.212-.871-63.818m58.091-41.063c-12.662-.02-25.324-.107-37.986-.039-8.262.045-13.18 4.017-14.515 12.03-.898 5.383-1.604 10.87-1.636 16.315-.162 28.444-.125 56.889-.024 85.333a32.884 32.884 0 0 0 1.419 9.32c2.197 7.224 6.646 9.497 17.15 9.311 7.876-.14 12.806-3.94 13.595-11.628.761-7.42.917-14.945.713-22.407-.136-4.96 1.723-6.176 6.386-6.276 6.778-.145 13.545-1.122 20.3-1.883 11.63-1.31 21.488-6.086 29.487-14.807 9.081-9.9 10.861-21.956 9.79-34.452-1.42-16.577-9.316-29.411-25.115-35.99-5.858-2.44-12.4-3.237-19.564-4.827z"/><path fill="#F1A160" d="M1014.247 165.58c2.274 7.219 4.705 14.065 6.564 21.064 1.985 7.474 3.429 15.091 5 23.074-1.662-3.745-3.376-7.868-4.731-12.104-2.476-7.741-4.676-15.57-7.118-23.322-1.326-4.21-2.66-8.447-4.443-12.472-2.442-5.51-5.217-10.88-8.027-16.217-3.402-6.463-6.45-13.21-10.627-19.145-5.982-8.5-12.52-16.668-19.414-24.452-11.17-12.61-23.441-24.062-38.183-32.544-7.013-4.035-14.061-8.012-21.03-12.123-.92-.543-1.464-1.723-1.848-2.985 6.002 2.605 11.809 5.353 17.3 8.63 6.902 4.116 13.544 8.664 20.298 13.027 0 0 .35.163.648.525 3.537 2.812 6.777 5.262 10.017 7.713 0 0 .058.051.164.387 2.718 2.74 5.33 5.143 7.942 7.546 0 0 .059.003.13.354 4.234 5.052 8.845 9.435 12.469 14.522 7.838 11.002 15.496 22.163 22.594 33.651 4.578 7.41 8.03 15.515 11.987 23.309.07.419.142.838.308 1.562zM15.357 144.974c6.001-10.507 12.016-21.277 18.829-31.516 4.359-6.55 9.897-12.317 15.006-18.744.1-.31.12-.396.42-.498 1.014-.791 1.727-1.48 2.44-2.168.295-.137.544-.333 1.18-.922 15.15-13.798 30.64-26.242 48.59-35.174 7.517-3.741 15.446-6.651 23.188-9.94-.9 1.075-1.583 2.566-2.73 3.158-11.17 5.767-23.057 10.414-33.472 17.298-11.884 7.856-22.986 17.114-33.465 26.804-8.31 7.683-15.46 16.705-22.56 25.583-3.942 4.93-6.638 10.841-10.066 16.2-2.173 3.398-4.661 6.595-7.36 9.919z"/><path fill="#FED9B8" d="M125.277 45.927c-8.009 3.374-15.938 6.284-23.455 10.025-17.95 8.932-33.44 21.376-48.465 34.97.22-.984.543-2.27 1.306-3.19 7.989-9.63 18.466-16.281 28.31-23.723 9.51-7.19 20.252-11.813 31.164-16.254 5.13-2.088 9.968-4.886 15.075-7.042 1.525-.643 3.51-.2 5.375.335-2.595 1.889-5.28 3.187-7.966 4.485-.36.103-.718.206-1.344.394z"/><path fill="#FCC797" d="M240.001 600.997c1.524-.845 3.048-1.69 5.099-2.79.994-.599 1.461-.94 1.929-1.282a12.85 12.85 0 0 1 1.695.046c-1.269 1.428-2.735 2.99-4.494 4.08-6.887 4.275-7.53 12.014-.397 15.891 7.742 4.208 16.274 6.965 24.478 10.317 10.224 4.178 20.48 8.282 30.678 12.525 1.137.473 1.985 1.638 2.726 2.858-.468.41-.697.444-.925.477-1.039-.442-2.078-.884-3.534-1.712-2.36-1.393-4.3-2.402-6.243-3.41-.752-.065-1.504-.129-2.696-.545-1.067-.719-1.694-1.085-2.321-1.452-1.094-.384-2.187-.768-3.734-1.547-4.117-1.716-7.78-3.036-11.442-4.357-.4.002-.798.005-1.693-.275a14.511 14.511 0 0 0-2.379-.675c-.389-.023-.778-.045-1.662-.378-2.444-1.08-4.394-1.85-6.343-2.62-.383-.011-.765-.022-1.66-.337-5.044-2.135-9.575-3.965-14.106-5.795 0 0 .02-.018-.128-.313-7-7.79-7.529-11.402-2.848-18.706z"/><path fill="#FED9B8" d="M947.965 75.66c-6.73-4.012-13.373-8.56-20.274-12.677-5.492-3.276-11.299-6.024-17.338-8.985-.73-.087-1.088-.195-1.885-.649-2.91-1.669-5.3-3.175-7.864-4.279-6.498-2.798-13.075-5.416-19.62-8.106 1.4-.288 3.005-1.167 4.165-.763 5.016 1.746 9.927 3.808 14.83 5.864 8.653 3.629 17.382 7.105 25.85 11.129 3.279 1.558 6.003 4.348 8.856 6.727a306.566 306.566 0 0 1 13.28 11.74z"/><path fill="#FCC797" d="M308.027 708.17s.455-.126.995-.29c1.35-1.414 2.161-2.665 2.972-3.915.384-1.084.767-2.167 1.534-3.688 1.411-2.724 2.44-5.01 3.47-7.296.308-2.372.616-4.743 1.238-7.835.107-5.206-.1-9.691-.306-14.177a48.549 48.549 0 0 1-.036-2.79c-1.495-3.898-3.032-7.047-4.57-10.196-.088-.44-.177-.88-.293-2.012a61.747 61.747 0 0 1-.012-2.116c2.045 3.636 5.023 7.045 5.974 10.948 4.004 16.437 1.735 31.908-8.94 45.567-.855 1.094-2.223 1.787-3.572 2.391.369-1.714.958-3.152 1.546-4.59z"/><path fill="#F1A160" d="M880.674 40.94c6.855 2.714 13.432 5.332 19.93 8.13 2.564 1.104 4.954 2.61 7.59 4.22-1.265.194-2.806.412-4.107-.048-6.504-2.3-12.985-4.679-19.397-7.222-6.572-2.606-13.056-5.435-19.376-8.628.41-.558.618-.655.825-.752.411.082.822.164 1.752.571 4.099 1.366 7.68 2.408 11.26 3.45.404.084.81.17 1.524.279z"/><path fill="#FED9B8" d="M866.001 36.328c-.07.409-.277.506-.8.742-.73.093-1.146.049-2.133-.265-5.784-1.362-10.996-2.454-16.208-3.546a52.657 52.657 0 0 0-2.49-.194c-5.2-1.184-10.044-2.378-15.128-3.868 4.992-2.245 9.893-.92 14.968.742 7.118 2.331 14.426 4.08 21.791 6.389z"/><path fill="#FCC797" d="M274.96 598.011c.45.04.902.08 1.76.476 1.087.713 1.768 1.07 2.449 1.426 1.05.294 2.098.589 3.68 1.23 2.822 1.135 5.113 1.923 7.405 2.712 1.599.014 3.198.029 5.625.083 3.27-.28 5.712-.6 8.153-.921-1.445.886-2.822 2.39-4.346 2.558-10.822 1.187-20.437-2.498-29.655-8.19.68-.371 1.446-.41 2.764-.169 1.089.453 1.627.624 2.164.795z"/><path fill="#F1A160" d="M127.064 45.663c2.242-1.428 4.928-2.726 7.78-4.342.578-.386.988-.455 2.078-.54 3.463-.625 6.244-1.233 9.025-1.842-.258.574-.396 1.543-.792 1.664-5.863 1.796-11.76 3.48-18.09 5.06zM846.98 33.574c5.092.777 10.304 1.869 15.773 3.236-5.75 2.715-10.844.608-15.773-3.236zM7.331 161.95c1.97-4.977 4.3-9.985 6.912-15.163.267 5.94-2.49 10.828-6.912 15.164z"/><path fill="#FCC797" d="M252.312 597.103c4.062-.588 8.41-.884 13.225-.893.47.465.473.641.476.818-4.471.122-8.942.244-13.7.075z"/><path fill="#FCCDA0" d="M304.285 602.91c-2.694.427-5.136.747-8.005 1.039-.055-.536.207-1.25.708-1.516 3.414-1.822 6.878-3.55 10.636-5.03-.344 1.436-.997 2.595-1.65 3.754-.48.55-.958 1.098-1.689 1.753z"/><path fill="#FED9B8" d="M146.146 38.884c-2.98.664-5.761 1.272-8.924 1.81 2.368-2.578 4.92-5.545 9.558-3.94.189.646.133 1.02.017 1.672-.058.276-.452.402-.651.458z"/><path fill="#FCCDA0" d="M307.693 708.196c-.254 1.413-.843 2.851-1.57 4.614-.336.515-.53.708-.859 1.057-.636.14-1.135.127-2.007.093 1.118-1.927 2.61-3.832 4.436-5.764z"/><path fill="#FCC797" d="M306.346 601.104c.28-1.106.934-2.265 1.623-3.754.352-.42.673-.499 1.239-.59-.668 1.414-1.579 2.852-2.862 4.344z"/><path fill="#FCCDA0" d="M300.872 643.467c.146-.381.375-.415.946-.496.848.214 1.352.476 2.004 1.292.16.941.17 1.329.182 1.717-1.017-.722-2.034-1.444-3.132-2.513zM309.123 649.5c-1.251-.41-2.61-1.104-3.69-2.152.718-.355 1.157-.357 1.596-.36.663.743 1.325 1.486 2.094 2.512z"/><path fill="#FCC797" d="M306.96 646.667c-.37.324-.809.326-1.576.325-.503-.283-.718-.528-1.176-.876-.215-.524-.227-.912-.261-1.588.965.414 1.954 1.115 3.012 2.139z"/><path fill="#FCCDA0" d="M266.363 597.068c-.353-.217-.356-.393-.364-.836.661-.158 1.327-.05 2.037.322-.411.362-.867.458-1.673.514zM312.883 653.802c.13.528.126 1.003.121 1.833-.366-.275-.732-.905-.815-1.666.283-.131.56-.22.694-.167z"/><path fill="#FCC797" d="M311.62 651.903c-.632-.149-1.18-.615-1.748-1.37.596.16 1.214.606 1.748 1.37z"/><path fill="#FED9B8" d="M774.976 24.555c-4.398.392-8.89.5-13.381.5-174.408.026-348.817.042-523.225.057-1.165 0-2.331-.03-3.965-.132 1.394-.693 3.256-1.824 5.12-1.828 58.151-.105 116.303-.11 174.454-.11 116.47.002 232.939.004 349.408.072 3.832.002 7.663.722 11.589 1.44zM1014.192 163.807c-4.21-7.583-7.662-15.688-12.24-23.098-7.098-11.488-14.756-22.65-22.594-33.651-3.624-5.087-8.235-9.47-12.469-14.493 6.295-.301 8.296 5.457 11.588 9.11 5.146 5.71 9.63 12.06 14.003 18.409 3.87 5.62 7.246 11.581 10.762 17.44 2.495 4.158 5.259 8.223 7.166 12.647 1.837 4.263 2.73 8.934 3.784 13.636zM229.693 24.643c-5.048.937-10.407 1.562-15.757 2.258-15.237 1.982-30.47 3.997-45.707 5.98-.818.106-1.658.035-2.915-.041 4.585-1.66 9.504-3.77 14.634-4.67 6.96-1.22 14.375-.507 21.068-2.444 9.528-2.757 18.913-1.242 28.677-1.083zM826.954 28.48c-11.087-.386-22.309-1.12-33.53-1.883-4.946-.337-9.889-.736-15.129-1.4 8.248-.529 16.81-1.221 25.329-.862 7.213.304 14.378 1.807 21.556 2.839.58.083 1.095.62 1.774 1.305zM162.723 32.65c-3.859 1.534-7.991 2.808-12.514 3.993 3.122-3.595 7.417-4.726 12.514-3.993zM958.73 83.887c-3.317-2.089-6.557-4.539-9.907-7.303 4.241.731 8.156 2.384 9.906 7.303zM879.027 40.355c-3.457-.736-7.037-1.778-10.822-3.12 4.408-2.688 7.333.835 10.822 3.12zM966.803 91.822c-2.656-2.043-5.268-4.446-7.957-7.16 5.013-.663 5.629 4.066 7.957 7.16zM51.688 92.033c-.349.703-1.062 1.392-2.07 2.14.373-.68 1.04-1.417 2.07-2.14z"/><path fill="#C86D1B" d="M331.046 471.058c-15.134-9.168-24.789-22.483-28.54-38.958-4.45-19.546-1.575-38.205 12.626-53.901 9.55-10.557 21.342-17.244 34.808-21.206 5.354-1.575 10.853-2.654 16.248-4.1 1.745-.467 3.489-1.187 5.026-2.13 3.728-2.286 3.703-5.995-.079-8.93-3.534-2.743-7.428-5.056-10.779-7.996-6.482-5.689-7.831-13.67-7.095-21.475 2.253-23.856 16.758-38.358 37.793-47.618 17.097-7.526 35.137-10.215 53.549-12.017 9.3-.91 18.436-3.786 27.546-6.156 2.154-.56 3.907-2.663 5.844-4.057l-.294-1.502c-1.767-.333-3.567-1.064-5.293-.92-4.452.375-8.95.799-13.287 1.815-8.72 2.043-16.981.085-24.675-3.362-11.926-5.342-15.15-18.486-7.12-30.143 4.07-5.908 9.583-11.102 15.28-15.546 9.129-7.12 19.107-13.138 28.437-20.014 8.615-6.35 16.333-13.91 20.674-23.788 4.05-9.212 7.319-18.945 3.633-29.325-.264-.744-.22-1.614-.218-2.425.001-.278.315-.555.855-1.43 6.098 2.456 12.516 4.551 18.487 7.54 16.246 8.13 31.561 17.704 43.831 31.4 15.572 17.38 24.894 37.334 22.486 61.121-.692 6.838-3.84 13.65-6.911 19.964-3.266 6.714-2.181 9.163 5.325 10.091 11.468 1.419 23.229 2.127 34.22 5.341 18.09 5.29 33.249 15.395 39.806 34.304 5.963 17.195 5.452 34.189-4.44 50.132-5.437 8.765-4.123 11.922 6.121 13.063 17.207 1.915 32.327 8.404 44.633 20.592 7.344 7.273 12.886 15.883 16.409 25.792 4.432 12.468 4.593 25.367 1.696 37.735-2.746 11.72-8.941 22.181-18.27 30.685-11.739 10.7-25.389 17.076-40.84 18.834-12.784 1.456-25.764 1.209-38.658 1.678-2.329.085-4.664-.028-6.997-.028-74.977-.01-149.955.04-224.932-.07-17.188-.026-34.01-2.619-50.015-9.247-2.289-.948-4.38-2.375-6.89-3.743m201.089-70.242c-4.946 1.298-9.823 3.237-14.85 3.777-16.754 1.802-32.108-1.402-44.336-14.128-2.423-2.523-4.85-5.054-7.426-7.416-5.031-4.613-11.08-5.044-16.122-.784-4.18 3.532-7.452 8.208-3.118 15.32 7.191 11.802 17.62 19.692 29.949 25.253 11.898 5.367 24.47 6.544 37.474 6.363 16.233-.226 30.657-5.094 43.587-14.495 7.398-5.378 14.577-11.202 17.145-20.71 2.09-7.74-6.242-16.918-13.841-14.652-3.464 1.033-6.505 3.811-9.465 6.143-6.2 4.883-12.218 9.996-18.997 15.329m-113.595-57.03c4.534 8.894 11.316 14.603 21.667 15.14 10.59.55 17.72-5.217 22.674-13.627 4.632-7.864 4.732-16.641 3.159-25.56-2.117-12.003-12.521-21.335-23.366-22.6-9.328-1.087-19.784 5.67-23.82 14.24-4.947 10.5-4.745 21.055-.314 32.407m169.022 13.482c11.232-4.714 15.545-13.852 16.739-25.335 1.295-12.458-2.031-22.682-12.347-30.435-13.066-9.821-28.255-1.505-34.082 8.244-4.795 8.021-5.15 16.38-3.926 25.3 1.93 14.056 16.315 28.784 33.616 22.226z"/><path fill="#FCCDA0" d="M239.614 601.016c-4.294 7.285-3.764 10.896 3.231 18.7-4.26-.839-7.969-4.867-7.506-9.72.29-3.049-1.286-7.728 4.275-8.98zM317.674 671.291c.463 4.164.669 8.65.58 13.431-.475-4.172-.655-8.64-.58-13.431zM243.05 620.355c4.458 1.491 8.99 3.321 13.747 5.427a157.633 157.633 0 0 1-13.748-5.427zM270.947 630.42c3.535.997 7.198 2.317 10.962 3.956-4.244.939-7.896-.36-10.962-3.956zM309.086 581.444c3.788 2.568 1.4 6.448 1.184 10.276-.592-3.08-.896-6.452-1.184-10.276zM313.245 658.365c1.617 2.767 3.154 5.916 4.652 9.473-1.603-2.759-3.167-5.925-4.652-9.473zM290.109 603.542c-2.147-.476-4.438-1.264-6.938-2.345 3.079-2.387 4.768.33 6.938 2.345zM316.66 693.063c-.691 2.204-1.72 4.49-3.058 6.864.701-2.202 1.71-4.492 3.057-6.864zM258.885 626.452c1.807.466 3.757 1.236 5.911 2.278-1.786-.476-3.777-1.224-5.91-2.278zM291.082 638.328c1.873.677 3.815 1.686 5.845 2.986-1.867-.69-3.822-1.672-5.845-2.986zM311.649 704.032c-.466 1.183-1.277 2.434-2.393 3.82.478-1.162 1.263-2.457 2.393-3.82zM246.834 596.738c-.273.528-.74.87-1.508 1.24.237-.458.776-.942 1.508-1.24zM274.924 597.734c-.502.106-1.04-.065-1.746-.47.458-.092 1.084.05 1.746.47zM279.066 599.616c-.578-.06-1.26-.416-2.012-1.067.589.06 1.25.415 2.012 1.067zM286.049 636.309c.574.058 1.201.424 1.9 1.063-.569-.07-1.208-.412-1.9-1.063zM266.858 629.402c.518-.125 1.146.005 1.97.4-.488.128-1.174-.008-1.97-.4z"/><path fill="#F48B33" d="M275.055 810.911c3.236 9.83 6.16 19.365 9.36 28.806 1.36 4.017.413 5.471-3.894 5.346-7.265-.211-14.54-.058-22.355-.058 1.643-5.582 2.933-10.313 4.432-14.977a668.68 668.68 0 0 1 6.542-19.345c.574-1.616 1.693-3.04 2.561-4.55 1.052 1.481 2.103 2.963 3.354 4.778z"/><path fill="#EDA162" d="M527.597 794.299c8.734 10.528 6.399 26.613-4.807 32.942-2.728 1.541-6.29 1.746-9.52 2.213-2.583.374-5.243.292-7.868.271-3.246-.025-5.387-1.249-5.37-4.99.045-9.977.047-19.954-.088-29.93-.036-2.734 1.036-4.038 3.674-4.138 8.103-.306 16.25-.888 23.98 3.632m-24.645 16.23c.005 3.994-.135 7.997.104 11.978.071 1.194.954 3.057 1.881 3.366 6.169 2.053 12.14.769 17.661-2.23 4.486-2.435 7.351-6.038 6.558-11.701-.343-2.45.004-4.989-.096-7.481-.236-5.894-4.6-10.298-10.495-10.51-3.657-.131-7.323.003-10.984-.067-2.969-.057-4.55.532-4.12 4.27.43 3.728-.288 7.588-.509 12.374z"/><path fill="#FBF1E3" d="M344.926 620c.002-10.165-.225-19.838.095-29.492.186-5.6.698-11.323 2.16-16.692.711-2.613 3.668-6.074 6.075-6.497 7.815-1.373 16.15-4.029 23.289 2.281 1.452 1.284 2.985 2.817 3.685 4.555 5.164 12.832 2.33 26.302 2.736 39.496.407 13.213.077 13.23 13.397 13.237 12.997.007 25.995.012 38.993-.008 6.918-.01 8.49-1.67 8.618-8.434.237-12.503.35-25.015.974-37.5.551-11.036 5.196-14.868 16.443-15.097 7.119-.146 13.789.388 17.6 7.569.959 1.807 1.983 3.89 1.988 5.849.118 43.825.234 87.651.015 131.476-.06 12.14-14.198 17.333-23.398 14.796-2.036-.561-4.28-1.189-5.827-2.498-1.952-1.653-4.484-3.925-4.686-6.12-1.088-11.865-1.612-23.784-2.16-35.693-.227-4.927-.18-9.88.02-14.81.179-4.394-1.449-6.465-6.056-6.397-10.09.148-20.184.036-30.276.035-6.269-.002-12.537-.01-18.805.011-5.822.02-6.73.902-6.74 6.618-.015 10.498.244 21.004-.086 31.492-.186 5.917-1.157 11.832-2.126 17.69-.273 1.651-1.483 3.453-2.787 4.58-8.746 7.554-23.013 7.697-30.17-3.051-.363-.544-.787-1.148-.867-1.764-.74-5.71-1.959-11.425-2.006-17.147-.217-25.993-.097-51.99-.098-78.485zM915.327 845.907c2.088 8.147 3.528 15.849-1.531 23.249-1.586 2.32-1.732 5.612-3.28 7.972-8.331 12.71-20.53 18.497-35.454 18.915-6.24.176-12.501.257-18.734-.036-9.816-.46-18.98-3.017-27.109-8.935-2.393-1.743-5.067-2.186-6.782-5.63-2.866-5.757-.96-9.974 2.095-14.17 2.351-3.23 9.886-4.33 14.359-2.358 10.393 4.582 20.975 8.161 32.568 7.001 10.443-1.045 15.215-3.73 15.278-13.58.03-4.518-1.957-8.727-7.36-10.523-4.726-1.572-8.977-4.518-13.62-6.413-5.11-2.086-10.438-3.631-15.65-5.472-8.99-3.175-16.682-8.597-21.82-16.393-6.418-9.742-7.446-20.538-2.684-31.688 9.518-22.288 35.27-29.582 57.645-24.545 6.681 1.504 13.122 4.228 19.53 6.755 7.145 2.817 6.592 9.16 6.248 15.2-.304 5.338-4.917 7.682-8.624 8.319-4.005.688-8.926-.648-12.693-2.575-7.914-4.05-16.243-3.55-24.287-2.561-3.688.453-8.537 4.124-9.967 7.545-2.678 6.406.162 10.513 6.034 14.404 5.971 3.956 12.798 5.356 19.304 7.802 11.818 4.443 24.216 8.25 32.123 19.23 1.766 2.451 2.803 5.427 4.411 8.487z"/><path fill="#FBEFDE" d="M403.66 763.96c6.697 1.567 13.24 2.364 19.098 4.803 15.799 6.58 23.694 19.414 25.115 35.991 1.071 12.496-.709 24.551-9.79 34.452-8 8.721-17.857 13.496-29.487 14.807-6.755.761-13.522 1.738-20.3 1.883-4.663.1-6.522 1.317-6.386 6.276.204 7.462.048 14.987-.713 22.407-.79 7.687-5.72 11.488-13.596 11.628-10.503.186-14.952-2.087-17.15-9.311a32.884 32.884 0 0 1-1.418-9.32c-.1-28.444-.138-56.89.024-85.333.032-5.445.738-10.932 1.636-16.316 1.336-8.012 6.253-11.984 14.515-12.029 12.662-.068 25.324.018 38.452.061m10.106 53.978c.33-1.462.729-2.912.982-4.387 1.804-10.517-2.3-19.232-11.39-21.455-5.84-1.429-12.199-.896-18.322-.846-.914.007-2.57 2.178-2.594 3.375-.207 9.99-.291 19.993.085 29.972.056 1.487 2.556 3.862 4.188 4.111 3.904.597 8.002.515 11.954.083 6.612-.725 12.187-3.368 15.097-10.853z"/><path fill="#6F3B12" d="M532.478 400.659c6.436-5.176 12.455-10.289 18.654-15.172 2.96-2.332 6-5.11 9.465-6.143 7.6-2.266 15.931 6.912 13.841 14.652-2.568 9.508-9.747 15.332-17.145 20.71-12.93 9.401-27.354 14.27-43.587 14.495-13.004.181-25.576-.996-37.474-6.363-12.329-5.561-22.758-13.45-29.95-25.253-4.333-7.112-1.062-11.788 3.119-15.32 5.043-4.26 11.09-3.829 16.122.784 2.577 2.362 5.003 4.893 7.426 7.416 12.228 12.726 27.582 15.93 44.336 14.128 5.027-.54 9.904-2.479 15.193-3.934z"/><path fill="#6E3A12" d="M418.374 343.44c-4.265-11.006-4.467-21.561.48-32.061 4.036-8.57 14.492-15.327 23.82-14.24 10.845 1.265 21.25 10.597 23.366 22.6 1.573 8.919 1.473 17.696-3.16 25.56-4.953 8.41-12.083 14.177-22.673 13.627-10.351-.537-17.133-6.246-21.833-15.486z"/><path fill="#6F3A12" d="M587.192 357.412c-16.93 6.414-31.316-8.314-33.246-22.37-1.225-8.92-.869-17.279 3.926-25.3 5.827-9.749 21.016-18.065 34.082-8.244 10.316 7.753 13.642 17.977 12.347 30.435-1.194 11.483-5.507 20.621-17.11 25.48z"/><path fill="#F98522" d="M502.956 810.036c.218-4.294.936-8.154.507-11.882-.43-3.738 1.15-4.327 4.119-4.27 3.66.07 7.327-.064 10.984.067 5.895.212 10.26 4.616 10.495 10.51.1 2.492-.247 5.031.096 7.48.793 5.664-2.072 9.267-6.558 11.703-5.522 2.998-11.492 4.282-17.661 2.229-.927-.309-1.81-2.172-1.881-3.366-.239-3.98-.099-7.984-.1-12.47z"/><path fill="#F78A2E" d="M413.629 818.308c-2.773 7.114-8.348 9.757-14.96 10.482-3.952.432-8.05.514-11.954-.083-1.632-.249-4.132-2.624-4.188-4.11-.376-9.98-.292-19.983-.085-29.973.024-1.197 1.68-3.368 2.594-3.375 6.123-.05 12.481-.583 18.322.846 9.09 2.223 13.194 10.938 11.39 21.455-.253 1.475-.651 2.925-1.12 4.758z"/></svg>